<?xml version="1.0" encoding="UTF-8"?>
<svg version="1.1" xmlns="http://www.w3.org/2000/svg" width="1080" height="1080">
<path d="M0 0 C94.71 0 189.42 0 287 0 C287 94.05 287 188.1 287 285 C475.1 285 663.2 285 857 285 C855.06204889 288.87590222 853.38918437 290.85960386 850.3654232 293.88067245 C849.88868251 294.35972084 849.41194181 294.83876922 848.92075443 295.33233422 C847.31576798 296.94263095 845.70372423 298.54567167 844.09164429 300.14886475 C842.93042191 301.31095898 841.769639 302.4734925 840.60925925 303.63642812 C837.41442326 306.83574557 834.21336859 310.02877761 831.01128864 313.2208426 C827.56119107 316.6623195 824.11685846 320.10955746 820.67182922 323.55610657 C814.7006476 329.52833792 808.72580913 335.49689062 802.74848557 341.46297455 C794.10623861 350.08898136 785.46950634 358.72049229 776.8341188 367.35336533 C762.82431028 381.35879442 748.81003936 395.35974948 734.79296875 409.35791016 C721.1750689 422.95745764 707.55927846 436.55911136 693.94628906 450.16357422 C693.09890671 451.01042058 692.25152435 451.85726694 691.37846375 452.72977531 C684.75159256 459.35248775 678.12484377 465.97532266 671.49813366 472.59819627 C639.0053683 505.07208738 606.50193713 537.53528357 574 570 C667.39 570.33 760.78 570.66 857 571 C857 665.38 857 759.76 857 857 C762.62 857 668.24 857 571 857 C571 762.95 571 668.9 571 572 C477.28 572 383.56 572 287 572 C287 666.05 287 760.1 287 857 C192.29 857 97.58 857 0 857 C0 762.62 0 668.24 0 571 C8.25 570.67 16.5 570.34 25 570 C24.505 566.7825 24.505 566.7825 24 563.5 C23.61649288 561.0072037 23.2852294 558.50594399 23 556 C22.67991848 554.23739334 22.67991848 554.23739334 22.35337067 552.43917847 C22.44242649 545.7118591 28.42276558 541.50928748 32.90856934 537.12939453 C33.98685401 536.04762075 35.0633788 534.96409039 36.13828802 533.87896252 C39.09633122 530.90302517 42.07875023 527.95261806 45.06572032 525.00575471 C48.28267204 521.82333299 51.47648989 518.61784312 54.673172 515.41508484 C60.21449005 509.86957083 65.77027365 504.33889884 71.33613586 498.81802368 C79.38339572 490.83576507 87.40848828 482.83152129 95.42833322 474.82173026 C108.44036947 461.82720543 121.4701727 448.85064825 134.51123047 435.88525391 C147.17977435 423.29013596 159.83984725 410.68660182 172.48876953 398.07177734 C173.67012196 396.89364088 173.67012196 396.89364088 174.8753401 395.69170368 C181.034525 389.54915405 187.19322058 383.4061139 193.35176158 377.26291871 C223.54145175 347.14870564 253.77362431 317.07747729 284 287 C190.28 286.67 96.56 286.34 0 286 C0 191.62 0 97.24 0 0 Z " fill="#FFFFFF" transform="translate(77,111)"/>
<path d="M0 0 C7.81099785 6.64517728 14.04273289 14.41553954 15.35986328 24.89941406 C16.30199091 37.07096827 14.82328869 47.1007338 7.40625 57.09375 C0.3450012 65.3318736 -8.02886642 70.23187321 -18.8671875 71.09765625 C-30.89901183 71.57423098 -40.46033544 69.63609511 -49.90625 61.69140625 C-58.39879728 53.58036012 -62.35489692 43.77586964 -63.15625 32.15625 C-62.93250125 20.45419033 -58.39072677 11.51363608 -50.65625 3.03125 C-37.17187806 -9.79825178 -14.91430342 -11.02361557 0 0 Z M-49.140625 14.49609375 C-53.85596669 20.5989143 -55.06282121 27.21364138 -54.90625 34.78125 C-53.53244294 43.70432691 -49.09260263 51.52381548 -42.03125 57.15625 C-33.98595946 62.61068427 -26.62288204 63.82064934 -16.90625 62.78125 C-7.65085755 60.50596602 -1.50177679 55.66562966 3.46875 47.65625 C7.97350779 39.92348395 8.58761818 30.85571397 6.4453125 22.14453125 C2.9475296 13.57944749 -3.55914756 6.73093257 -11.90625 2.78125 C-26.71226571 -2.63627682 -39.42164534 3.08927602 -49.140625 14.49609375 Z " fill="#FFFFFF" transform="translate(995.90625,118.21875)"/>
<path d="M0 0 C17 0 17 0 24 3 C26.95280602 7.42920904 27.27063555 10.52380611 26.3125 15.75 C25 19 25 19 22.91796875 20.203125 C22.28503906 20.46609375 21.65210938 20.7290625 21 21 C21.433125 21.91523438 21.86625 22.83046875 22.3125 23.7734375 C22.869375 24.96195313 23.42625 26.15046875 24 27.375 C24.556875 28.55835938 25.11375 29.74171875 25.6875 30.9609375 C27 34 27 34 27 36 C24.36 36 21.72 36 19 36 C17.99491199 34.21118264 16.99607264 32.41885304 16 30.625 C15.1646875 29.12839844 15.1646875 29.12839844 14.3125 27.6015625 C13 25 13 25 13 23 C11.02 23 9.04 23 7 23 C7 27.29 7 31.58 7 36 C4.69 36 2.38 36 0 36 C0 24.12 0 12.24 0 0 Z M7 7 C7 9.97 7 12.94 7 16 C8.62463842 16.05395478 10.24978541 16.09277195 11.875 16.125 C12.77992188 16.14820313 13.68484375 16.17140625 14.6171875 16.1953125 C17.18806994 16.24324836 17.18806994 16.24324836 19 14 C18.81242938 10.17435335 18.81242938 10.17435335 17 7 C15.31391034 6.92794489 13.62499341 6.91613932 11.9375 6.9375 C11.01839844 6.94652344 10.09929688 6.95554688 9.15234375 6.96484375 C8.44207031 6.97644531 7.73179687 6.98804688 7 7 Z " fill="#FFFFFF" transform="translate(959,132)"/>
</svg>
